<svg width="112" height="30" fill="none" xmlns="http://www.w3.org/2000/svg">
  <path d="M53.4 9.78V8h-11v1.78h4.52V22h1.98V9.78h4.5zM61.284 17c0-3.46-2.28-5.1-4.92-5.12-2.64-.02-4.92 1.66-4.92 5.12s2.28 5.12 4.92 5.12 4.92-1.66 4.92-5.12zm-1.9 0c0 2.44-1.4 3.46-3.02 3.46s-3.02-1.02-3.02-3.46 1.4-3.48 3.02-3.46c1.62.02 3.02 1.02 3.02 3.46zM71.85 8h-2v5.72c-.72-1.28-1.94-1.86-3.52-1.84-2.64.02-4.36 1.66-4.36 5.12s1.72 5.12 4.36 5.12c1.58 0 2.8-.56 3.52-1.84V22h2V8zm-5 12.56c-1.78 0-2.92-1.22-2.92-3.56s1.14-3.54 2.92-3.56c1.6-.02 3 .88 3 3.56s-1.4 3.56-3 3.56zM82.73 17c0-3.46-2.28-5.1-4.92-5.12-2.64-.02-4.92 1.66-4.92 5.12s2.28 5.12 4.92 5.12 4.92-1.66 4.92-5.12zm-1.9 0c0 2.44-1.4 3.46-3.02 3.46s-3.02-1.02-3.02-3.46 1.4-3.48 3.02-3.46c1.62.02 3.02 1.02 3.02 3.46zm12.428 0c0-3.46-2.28-5.1-4.92-5.12-2.64-.02-4.92 1.66-4.92 5.12s2.28 5.12 4.92 5.12 4.92-1.66 4.92-5.12zm-1.9 0c0 2.44-1.4 3.46-3.02 3.46s-3.02-1.02-3.02-3.46 1.4-3.48 3.02-3.46c1.62.02 3.02 1.02 3.02 3.46zm7.402-.72l4.08-4.28h-2.4l-4.14 4.44V8h-2v14h2v-3.14l1.2-1.26 3.38 4.38h2.26l-4.38-5.7zm4.4 5.72v-.02h-.02l.02.02zm4.447-10.06c-1.94-.02-3.86.74-4.2 3.1l1.8.34c.26-1.58 1.4-1.8 2.4-1.8 1.08 0 2.24.5 2.24 1.72 0 1.88-6.84-.76-6.84 3.86 0 3.42 5.24 4.04 6.84 1.12V22h2.02v-6.14c0-3-2.12-3.9-4.26-3.92zm-2.48 7.22c0-2.44 3.46-1.54 4.72-2.38v.9c0 3.9-4.72 4-4.72 1.48z" fill="#000"/>
  <circle cx="15" cy="15" r="15" fill="url(#paint0_linear)"/>
  <circle cx="15" cy="15" r="7.5" fill="#fff"/>
  <defs>
    <linearGradient id="paint0_linear" x1="1.875" y1="6" x2="27.75" y2="28.125" gradientUnits="userSpaceOnUse">
      <stop stop-color="#A2B0FF"/>
      <stop offset="1" stop-color="#35407D" stop-opacity="0"/>
    </linearGradient>
  </defs>
</svg>
